<svg width="66" height="66" viewBox="0 0 66 66" fill="none" xmlns="http://www.w3.org/2000/svg">
<path d="M63.8246 39.167L56.4921 40.4996C56.0702 41.8177 55.5286 43.0832 54.9038 44.2977L59.1547 50.4339C60.0627 51.8439 59.9562 52.5387 59.1547 53.3415L53.3434 59.1569C52.5405 59.9595 51.7493 60.0209 50.437 59.1569L44.2972 54.9018C43.0841 55.5325 41.817 56.0711 40.496 56.49L39.1617 63.8247C38.807 65.4624 38.2421 65.877 37.1064 65.877L28.8878 65.8828C27.7521 65.877 27.1536 65.3632 26.8325 63.8276L25.4997 56.4901C24.18 56.0711 22.913 55.5325 21.7014 54.9019L15.5601 59.1569C14.1529 60.0633 13.4566 59.9596 12.6537 59.1569L6.84086 53.3446C6.03792 52.5417 5.97814 51.7564 6.84086 50.4384L11.0932 44.2933C10.4655 43.0833 9.92534 41.8177 9.50792 40.4997L2.17251 39.167C0.531743 38.8094 0.117188 38.2459 0.117188 37.1104V28.8911C0.117188 27.7555 0.629619 27.1557 2.17251 26.8344L9.50792 25.5004C9.92534 24.1823 10.4655 22.9168 11.0931 21.7038L6.84379 15.5661C5.93438 14.1604 6.04098 13.4612 6.84379 12.6584L12.6478 6.84462C13.4508 6.04482 14.2419 5.98498 15.5572 6.84755L21.6969 11.0981C22.91 10.4733 24.1771 9.93619 25.5026 9.51295L26.8325 2.18106C27.1828 0.541994 27.7521 0.125978 28.8878 0.125978L37.1064 0.117188C38.2391 0.123048 38.8376 0.641229 39.1588 2.17819L40.4931 9.51002C41.8141 9.92896 43.0812 10.4675 44.2913 11.0982L50.4326 6.84755C51.8413 5.93829 52.5376 6.04482 53.3405 6.84755L59.1547 12.6556C59.9561 13.4583 60.0159 14.2494 59.1547 15.5616L54.8995 21.7038C55.5286 22.9139 56.0658 24.1823 56.4892 25.5004L63.8217 26.8344C65.4609 27.1906 65.8755 27.7556 65.877 28.8911L65.8828 37.1104C65.8799 38.2459 65.3617 38.8458 63.8246 39.167ZM32.9956 12.4483C21.6459 12.4483 12.445 21.6557 12.445 33.0001C12.445 44.3532 21.6459 53.5518 32.9956 53.5518C44.3468 53.5518 53.5477 44.3531 53.5477 33.0001C53.5477 21.6557 44.3469 12.4483 32.9956 12.4483Z" fill="white"/>
<path d="M32.8919 20.9125C33.7649 20.898 34.4626 20.1813 34.4626 19.3069C34.4363 18.4546 33.7225 17.7656 32.8685 17.7656C31.9985 17.7656 31.3022 18.475 31.3022 19.3551C31.3022 20.2236 32.0189 20.9125 32.8919 20.9125ZM19.4984 31.3271C18.624 31.3271 17.9277 32.0424 17.9277 32.905C17.9277 33.7764 18.6387 34.4654 19.4984 34.4654H19.5174C20.3903 34.4654 21.0867 33.7764 21.0867 32.905C21.0867 32.0219 20.367 31.3111 19.4984 31.3271ZM33.0261 44.7209C32.1591 44.7209 31.4584 45.4345 31.4584 46.3118C31.4584 47.1832 32.1736 47.8707 33.0524 47.8707C33.9005 47.8707 34.6115 47.1628 34.6115 46.3118C34.6115 45.4345 33.9005 44.7209 33.0261 44.7209ZM48.0705 32.6423C48.0443 31.7694 47.3363 31.0673 46.4619 31.0921C45.6051 31.0921 44.8926 31.8074 44.9131 32.6787V32.8189C44.9131 33.6902 45.6051 34.407 46.4794 34.407C47.3537 34.407 48.0705 33.6902 48.0705 32.8189C48.0705 32.797 48.0443 32.759 48.0443 32.7459C48.0443 32.6992 48.0705 32.6787 48.0705 32.6423Z" fill="white"/>
<path d="M42.8329 25.6468L32.1504 32.3247C32.1372 31.9438 31.9285 31.5817 31.5664 31.3876L23.1202 26.781C22.5758 26.4833 21.8911 26.6774 21.5904 27.232C21.2926 27.775 21.4926 28.4596 22.0385 28.7544L30.4951 33.3654C30.5475 33.396 30.6059 33.415 30.6629 33.4341C30.4789 33.7771 30.4789 34.2047 30.695 34.5551C30.8541 34.8096 31.1077 34.9907 31.4 35.0586C31.6832 35.1229 31.9854 35.0791 32.2512 34.914L44.0212 27.5532C44.5482 27.2263 44.7072 26.53 44.3833 26.0031C44.0504 25.4717 43.3599 25.3141 42.8329 25.6469V25.6468Z" fill="white"/>
<path d="M36.016 32.8125C36.016 34.4707 34.6701 35.8252 33.0058 35.8252C31.3388 35.8252 29.9841 34.4707 29.9841 32.8125C29.9841 31.15 31.3388 29.7969 33.0059 29.7969C34.6701 29.7969 36.016 31.15 36.016 32.8125V32.8125Z" fill="white"/>
</svg>
